<svg width="20" height="20" viewBox="0 0 20 20" fill="none" xmlns="http://www.w3.org/2000/svg">
<path d="M12.5754 13.2825C13.9977 14.7048 13.9977 17.0109 12.5754 18.4332C11.153 19.8556 8.84696 19.8556 7.42462 18.4332C6.00228 17.0109 6.00228 14.7048 7.42462 13.2825C8.84696 11.8601 11.153 11.8601 12.5754 13.2825ZM12.5754 1.56676C13.9977 2.9891 13.9977 5.29517 12.5754 6.71752C11.153 8.13986 8.84696 8.13985 7.42462 6.71751C6.00228 5.29517 6.00228 2.9891 7.42462 1.56676C8.84696 0.144415 11.153 0.144415 12.5754 1.56676ZM13.2825 7.42462C14.7048 6.00228 17.0109 6.00228 18.4332 7.42462C19.8556 8.84696 19.8556 11.153 18.4332 12.5754C17.0109 13.9977 14.7048 13.9977 13.2825 12.5754C11.8601 11.153 11.8601 8.84696 13.2825 7.42462ZM6.71752 7.42462C8.13986 8.84696 8.13986 11.153 6.71752 12.5754C5.29518 13.9977 2.9891 13.9977 1.56676 12.5754C0.144415 11.153 0.144415 8.84696 1.56676 7.42462C2.9891 6.00228 5.29518 6.00228 6.71752 7.42462Z" stroke="white"/>
</svg>
